# xmcd
#
# Track frame offsets:
#	151
#	12313
#	22062
#	35622
#	46890
#	57616
#	74512
#	95870
#	110903
#	122137
#	140119
#	154070
#	175054
#	190449
#	204157
#	219249
#	230785
#	241211
#	260636
#	277830
#	302628
#	318895
#
# Disc length: 4438 seconds
#
# Revision: 1
# Processed by: cddbd v1.5.2PL0 Copyright (c) Steve Scherf et al.
# Submitted via: audiograbber 1.83.01
#
DISCID=4e115416
DTITLE=Elroy Thornhill - Elroy Thornhill And Freinds
DYEAR=1900
DGENRE=Country
TTITLE0=Amigo큦 Guitar
TTITLE1=Whose Sholder Will You Cry On
TTITLE2=Poor Girl, Bad Girl
TTITLE3=The Sweetest Love
TTITLE4=The Great Father
TTITLE5=Leavenworth Keep My Secret
TTITLE6=The Hardest Heart
TTITLE7=Just For A While
TTITLE8=Trucker큦 Fate
TTITLE9=My Last Christmas
TTITLE10=These City Streets
TTITLE11=Think Divorce, Think Again
TTITLE12=Just A Housewife
TTITLE13=It큦 Too Late Now
TTITLE14=The Blue Rose
TTITLE15=Grandma Time
TTITLE16=Wanted, Someone To Cry
TTITLE17=The Convict큦 Prayer
TTITLE18=Jackson Jail Blues
TTITLE19=Last Will And Testament
TTITLE20=Hitch Hiker Blues
TTITLE21=The Courtroom
EXTD=
EXTT0=
EXTT1=
EXTT2=
EXTT3=
EXTT4=
EXTT5=
EXTT6=
EXTT7=
EXTT8=
EXTT9=
EXTT10=
EXTT11=
EXTT12=
EXTT13=
EXTT14=
EXTT15=
EXTT16=
EXTT17=
EXTT18=
EXTT19=
EXTT20=
EXTT21=
PLAYORDER=
